<?xml version="1.0" standalone="no"?>
<!DOCTYPE svg PUBLIC "-//W3C//DTD SVG 20010904//EN"
 "http://www.w3.org/TR/2001/REC-SVG-20010904/DTD/svg10.dtd">
<svg version="1.0" xmlns="http://www.w3.org/2000/svg"
 width="2132.000000pt" height="2132.000000pt" viewBox="0 0 2132.000000 2132.000000"
 preserveAspectRatio="xMidYMid meet">
<metadata>
Created by potrace 1.14, written by Peter Selinger 2001-2017
</metadata>
<g transform="translate(0.000000,2132.000000) scale(0.100000,-0.100000)"
fill="#000000" stroke="none">
<path d="M10562 21274 c-12 -18 -22 -36 -22 -39 0 -3 -5 -11 -10 -18 -30 -36
-68 -103 -63 -112 4 -5 2 -7 -2 -2 -8 7 -57 -65 -55 -79 1 -4 -2 -10 -7 -13
-12 -8 -75 -101 -69 -101 3 0 -6 -12 -20 -27 -13 -14 -22 -28 -19 -31 2 -2 -9
-21 -25 -40 -16 -19 -27 -39 -24 -44 3 -4 -2 -11 -10 -14 -9 -3 -16 -10 -16
-15 0 -6 -9 -22 -19 -37 -56 -80 -154 -239 -154 -249 0 -7 -4 -10 -8 -7 -4 2
-10 -5 -14 -16 -3 -11 -17 -32 -29 -48 -13 -15 -26 -37 -30 -49 -4 -13 -12
-23 -17 -23 -5 0 -9 -5 -9 -11 0 -6 -9 -22 -20 -36 -11 -14 -17 -30 -13 -37 3
-6 2 -8 -2 -3 -8 7 -53 -58 -53 -77 0 -5 -4 -12 -9 -15 -16 -11 -76 -104 -76
-118 0 -7 -4 -13 -8 -13 -8 0 -97 -141 -97 -154 0 -5 -4 -12 -9 -15 -16 -10
-94 -131 -86 -131 4 0 3 -4 -3 -8 -13 -9 -77 -102 -70 -102 3 0 -6 -12 -20
-27 -13 -14 -22 -28 -20 -31 3 -2 -4 -13 -14 -25 -11 -11 -17 -23 -15 -27 3
-5 -2 -10 -10 -14 -8 -3 -15 -12 -15 -21 0 -8 -4 -15 -10 -15 -5 0 -10 -4 -10
-9 0 -6 -13 -29 -29 -53 -49 -73 -78 -123 -79 -132 0 -5 -4 -12 -9 -15 -13 -9
-51 -65 -55 -81 -2 -7 -10 -20 -18 -29 -8 -9 -60 -88 -115 -176 -55 -88 -102
-162 -105 -165 -13 -12 -40 -60 -33 -60 4 0 -1 -6 -10 -12 -9 -7 -17 -19 -19
-27 -2 -7 -13 -25 -25 -39 -13 -13 -20 -28 -18 -32 3 -4 -2 -10 -10 -14 -8 -3
-15 -12 -15 -21 0 -8 -4 -15 -10 -15 -5 0 -10 -5 -10 -11 0 -6 -9 -22 -20 -36
-11 -14 -17 -30 -13 -36 3 -5 2 -7 -4 -4 -5 3 -17 -7 -27 -24 -9 -16 -14 -29
-9 -29 4 0 0 -5 -9 -11 -10 -5 -18 -17 -18 -24 0 -8 -5 -15 -12 -15 -6 0 -9
-3 -6 -6 3 -3 -5 -17 -18 -31 -21 -23 -25 -24 -39 -9 -9 9 -13 16 -8 16 4 0
-3 10 -17 21 -14 11 -18 17 -10 13 8 -4 5 4 -7 18 -13 13 -23 30 -23 37 0 7
-4 9 -10 6 -5 -3 -10 -1 -10 6 0 6 -8 18 -17 26 -10 8 -12 11 -4 7 9 -5 8 2
-5 19 -10 15 -22 27 -26 27 -5 0 -8 5 -8 11 0 7 -8 18 -17 26 -10 8 -12 11 -3
7 8 -5 4 6 -10 23 -14 16 -32 40 -40 53 -8 12 -21 29 -28 36 -7 8 -10 14 -5
14 4 0 3 4 -3 8 -6 4 -17 19 -25 33 -23 41 -76 123 -93 142 -9 9 -13 17 -9 17
4 0 -2 7 -13 16 -10 8 -12 12 -4 8 8 -4 4 5 -9 19 -14 15 -21 27 -16 27 4 0
-2 8 -13 19 -12 10 -19 21 -15 24 3 4 -3 15 -15 25 -12 11 -19 22 -15 26 3 3
1 6 -5 6 -7 0 -12 6 -12 13 0 7 -8 22 -18 33 -10 10 -19 24 -20 29 -1 6 -9 18
-17 28 -8 9 -12 17 -9 17 3 0 -4 13 -15 29 -12 16 -21 33 -21 37 0 4 -6 15
-14 23 -7 9 -24 36 -38 61 -29 55 -60 103 -71 111 -5 3 -8 8 -7 10 4 8 -26 65
-40 76 -8 7 -11 13 -6 13 5 0 2 8 -6 18 -8 9 -21 32 -29 50 -8 17 -17 32 -21
32 -5 0 -8 7 -8 15 0 8 -5 15 -11 15 -5 0 -8 4 -5 8 3 5 -5 24 -18 43 -12 19
-29 49 -37 67 -8 17 -18 32 -22 32 -5 0 -6 4 -2 9 3 5 -1 16 -9 24 -8 8 -12
17 -9 21 4 3 1 6 -5 6 -7 0 -12 3 -11 8 2 16 -14 52 -24 52 -6 0 -8 3 -4 6 3
4 -1 13 -9 21 -8 8 -12 19 -9 24 4 5 1 9 -4 9 -6 0 -10 3 -9 8 3 12 -36 92
-45 92 -4 0 -5 5 -2 10 3 6 1 10 -4 10 -6 0 -10 3 -9 8 1 4 -5 21 -12 37 -7
17 -14 33 -15 38 -2 4 -4 10 -5 15 -1 4 -2 10 -1 15 0 4 -4 7 -10 7 -5 0 -7 5
-4 10 3 6 1 10 -5 10 -6 0 -9 4 -5 9 3 5 1 12 -5 16 -5 3 -10 16 -10 29 0 12
-4 26 -9 31 -12 13 -43 134 -42 163 1 23 1 23 -28 -5 -16 -15 -27 -30 -25 -32
2 -2 -4 -11 -14 -20 -10 -9 -48 -54 -85 -101 -37 -47 -76 -95 -86 -107 -11
-13 -16 -23 -13 -23 4 0 0 -5 -8 -10 -8 -5 -15 -14 -15 -20 0 -6 -5 -14 -11
-18 -6 -4 -27 -29 -47 -55 -20 -26 -44 -55 -52 -63 -8 -9 -12 -20 -9 -26 4 -7
2 -8 -4 -4 -7 4 -12 3 -12 -2 0 -8 -26 -45 -68 -97 -44 -55 -121 -165 -115
-165 4 0 -3 -7 -15 -16 -12 -8 -22 -19 -22 -24 0 -6 -6 -18 -14 -27 -35 -43
-85 -113 -81 -113 2 0 -7 -12 -21 -27 -13 -14 -22 -28 -19 -31 3 -3 -4 -12
-15 -19 -11 -8 -18 -18 -15 -23 3 -4 1 -10 -3 -12 -13 -5 -124 -168 -115 -168
4 0 3 -4 -3 -8 -6 -4 -32 -38 -57 -77 -26 -38 -51 -75 -56 -81 -5 -7 -8 -14
-6 -16 2 -2 -6 -16 -19 -31 -13 -15 -29 -41 -36 -57 -7 -17 -16 -30 -21 -30
-5 0 -9 -4 -9 -10 0 -5 -16 -34 -35 -65 -20 -30 -33 -55 -30 -55 3 0 -3 -10
-14 -22 -11 -11 -18 -25 -15 -30 3 -4 1 -8 -4 -8 -5 0 -17 -17 -28 -37 -10
-21 -23 -41 -29 -45 -5 -4 -7 -8 -2 -8 8 0 -22 -51 -36 -61 -4 -3 -9 -16 -10
-27 -1 -12 -4 -22 -7 -22 -7 0 -52 -86 -50 -96 1 -4 -3 -10 -8 -13 -10 -7 -72
-137 -72 -152 0 -5 -4 -9 -9 -9 -5 0 -12 -7 -15 -16 -4 -10 -2 -13 6 -8 7 4 3
-6 -8 -22 -16 -23 -55 -111 -59 -134 -1 -3 -9 -22 -18 -44 -9 -21 -14 -42 -11
-47 3 -5 1 -9 -3 -9 -7 0 -35 -74 -39 -105 -1 -5 -3 -13 -4 -17 -1 -5 -3 -11
-4 -15 -1 -5 -5 -14 -10 -21 -4 -7 -5 -16 -2 -19 3 -3 1 -14 -4 -23 -14 -26
-23 -103 -24 -212 l-1 -96 -170 86 c-93 47 -195 100 -225 117 -30 18 -75 44
-100 57 -25 14 -73 42 -107 62 -34 20 -66 36 -72 36 -6 0 -11 3 -11 8 0 4 -17
16 -37 27 -21 11 -57 32 -79 48 -23 15 -46 27 -52 27 -6 0 -12 3 -14 8 -4 8
-65 52 -73 52 -7 0 -282 185 -351 235 -23 16 -94 68 -159 115 -106 76 -357
269 -395 303 -8 7 -42 35 -75 62 -57 47 -127 106 -170 144 -94 81 -193 170
-211 186 -345 322 -566 544 -806 809 -29 33 -62 69 -73 82 -11 12 -40 45 -65
74 -25 29 -50 58 -55 64 -77 81 -415 502 -545 680 -36 48 -77 102 -93 119 -15
16 -27 36 -27 43 0 7 -4 14 -8 16 -8 3 -99 129 -171 236 -24 35 -46 61 -49 57
-3 -3 -7 -23 -8 -43 -1 -20 -5 -111 -9 -202 -13 -282 -19 -456 -30 -845 -20
-653 -20 -1785 0 -2260 12 -295 29 -622 39 -765 12 -156 17 -219 21 -255 2
-22 7 -71 10 -110 4 -38 8 -81 10 -95 2 -14 6 -54 10 -90 4 -36 8 -76 10 -90
2 -14 7 -50 10 -80 3 -30 8 -62 10 -70 2 -8 7 -40 10 -70 4 -30 13 -89 21
-130 8 -41 15 -82 16 -90 2 -28 69 -331 89 -400 7 -25 13 -47 14 -50 6 -23 35
-111 45 -135 6 -16 12 -32 12 -35 4 -18 62 -136 92 -186 55 -94 120 -154 236
-219 58 -32 130 -73 160 -90 30 -18 91 -51 135 -74 44 -24 89 -52 100 -63 11
-11 14 -18 8 -14 -11 6 13 -50 27 -64 3 -3 7 -14 8 -25 2 -11 8 -23 14 -26 5
-3 9 -9 9 -13 -3 -14 12 -56 18 -56 4 0 8 -6 8 -13 0 -6 13 -41 30 -77 17 -36
34 -74 38 -85 5 -11 9 -22 10 -25 20 -50 31 -70 38 -70 4 0 5 -4 2 -10 -3 -5
-2 -10 2 -10 5 0 10 -10 10 -22 1 -13 7 -24 13 -26 5 -2 10 -8 10 -14 0 -18
54 -128 63 -128 4 0 6 -4 2 -10 -6 -9 9 -41 34 -72 8 -10 10 -18 6 -18 -4 0 0
-10 11 -22 12 -13 13 -18 4 -13 -12 7 -13 6 -3 -6 18 -23 83 -152 83 -166 0
-7 4 -13 10 -13 5 0 13 -12 16 -27 4 -16 14 -39 23 -53 9 -14 30 -52 46 -85
16 -33 34 -63 38 -66 5 -3 8 -9 8 -13 -2 -10 31 -70 41 -77 5 -3 10 -10 10
-15 1 -14 19 -58 26 -64 4 -3 18 -27 32 -55 14 -27 32 -56 40 -63 13 -12 13
-13 0 -7 -13 6 -13 5 0 -7 8 -7 16 -20 18 -28 2 -8 9 -22 16 -30 7 -8 19 -30
27 -47 8 -18 16 -33 20 -33 3 0 11 -16 19 -35 8 -19 17 -35 22 -35 4 0 8 -7 8
-15 0 -9 6 -18 13 -21 8 -3 14 -10 14 -17 0 -13 60 -114 80 -135 7 -7 13 -18
13 -23 0 -5 16 -32 35 -60 19 -28 35 -56 35 -61 0 -5 5 -6 10 -3 5 3 10 -3 10
-15 0 -13 4 -19 12 -14 7 5 8 3 3 -6 -4 -7 -3 -15 2 -19 5 -3 42 -54 82 -113
40 -60 77 -108 82 -108 5 0 8 -4 7 -8 -2 -5 6 -21 17 -36 37 -50 130 -172 160
-210 17 -21 44 -55 61 -76 18 -22 34 -36 38 -33 3 4 6 0 6 -8 0 -8 36 -52 80
-99 44 -46 80 -88 80 -93 0 -4 5 -5 10 -2 6 3 10 -1 10 -9 0 -9 4 -16 9 -16 5
0 24 -16 42 -35 18 -18 37 -31 42 -28 6 3 8 2 5 -3 -3 -5 0 -15 8 -22 8 -7 14
-10 14 -6 0 4 9 -5 20 -18 10 -14 47 -45 81 -69 34 -24 69 -52 77 -61 9 -10
22 -18 29 -18 6 0 18 -7 26 -15 16 -15 105 -68 147 -87 73 -32 96 -41 148 -58
31 -10 82 -23 112 -28 66 -13 245 -8 281 6 15 6 30 8 33 5 3 -4 6 -1 6 6 0 7
4 10 9 7 5 -3 22 -2 37 3 46 15 179 55 184 56 40 7 110 31 110 37 0 5 4 7 8 4
7 -4 352 106 412 131 18 8 17 7 60 17 19 5 40 12 45 16 6 5 13 9 17 9 4 1 13
4 20 6 79 27 296 95 306 95 6 0 12 4 12 8 0 4 8 9 18 10 31 3 47 7 60 15 6 5
12 6 12 3 0 -3 16 2 35 10 19 8 35 12 35 9 0 -3 9 -1 21 5 11 7 31 13 43 16
13 2 50 12 82 23 48 15 292 74 354 86 8 1 33 6 55 10 22 4 47 9 55 10 8 1 29
5 45 8 17 3 54 9 84 12 30 4 63 8 73 10 84 17 349 22 493 11 139 -11 173 -16
275 -41 36 -9 73 -18 83 -20 9 -2 22 -7 27 -10 6 -4 22 -9 37 -11 15 -3 32 -9
38 -14 5 -4 13 -9 17 -9 10 -2 33 -9 56 -18 9 -3 20 -5 25 -5 4 1 7 -3 7 -10
0 -6 3 -9 6 -5 3 3 23 -5 44 -18 21 -13 41 -21 44 -18 3 4 6 2 6 -4 0 -10 20
-19 44 -21 5 0 13 -7 18 -16 5 -9 13 -14 19 -11 5 4 9 2 9 -4 0 -5 8 -12 19
-16 16 -5 32 -16 79 -55 6 -6 12 -7 12 -3 0 4 5 1 10 -7 5 -8 15 -15 22 -15 7
-1 12 -6 11 -13 -2 -6 9 -15 23 -18 13 -4 23 -8 21 -11 -2 -2 10 -18 28 -36
25 -25 34 -45 41 -87 8 -58 10 -69 14 -72 1 -2 3 -16 5 -33 2 -16 5 -39 8 -50
3 -11 8 -56 12 -100 4 -44 9 -93 10 -110 2 -16 5 -60 6 -97 1 -51 5 -65 15
-61 10 4 14 -4 15 -23 1 -16 3 -42 5 -59 5 -44 4 -323 -1 -370 -3 -22 -7 -69
-10 -104 -11 -140 -27 -242 -59 -366 -22 -88 -36 -137 -45 -160 -20 -45 -33
-85 -31 -91 1 -4 -2 -10 -7 -13 -4 -3 -17 -24 -27 -46 -11 -22 -30 -54 -43
-72 -13 -17 -23 -36 -23 -41 0 -6 -7 -13 -16 -16 -8 -3 -12 -11 -9 -16 4 -6 3
-9 -2 -8 -11 4 -53 -39 -45 -46 3 -3 -1 -6 -10 -6 -8 0 -23 -8 -32 -19 -22
-25 -122 -69 -172 -77 -40 -6 -423 -5 -669 1 -337 8 -597 16 -690 20 -55 2
-185 7 -290 10 -104 4 -216 8 -248 10 l-58 3 58 -81 c31 -45 87 -125 125 -177
37 -52 73 -103 80 -113 7 -11 20 -27 28 -38 8 -10 44 -60 80 -110 65 -92 389
-531 413 -559 7 -8 26 -33 42 -55 37 -49 35 -47 87 -115 24 -30 45 -57 48 -60
3 -3 25 -32 50 -65 25 -33 51 -66 58 -73 7 -8 25 -30 39 -50 25 -34 134 -171
158 -198 6 -7 24 -29 40 -50 17 -20 46 -56 65 -79 19 -23 53 -63 75 -90 57
-70 174 -206 199 -233 11 -12 44 -49 71 -81 28 -33 56 -60 64 -60 8 -1 12 -4
8 -7 -3 -4 13 -26 36 -51 23 -24 44 -49 45 -54 2 -5 11 -9 19 -9 9 0 14 -3 10
-6 -8 -8 25 -44 35 -38 4 3 8 1 8 -5 0 -17 136 -152 144 -143 4 4 6 2 4 -3 -3
-12 32 -48 142 -145 41 -36 70 -58 65 -50 -5 8 5 1 21 -16 57 -60 245 -172
297 -178 13 -1 27 -5 32 -7 21 -11 131 6 141 22 3 5 14 9 25 9 10 0 19 4 19
10 0 5 3 9 8 8 14 -3 61 21 82 42 11 11 20 17 20 14 0 -9 64 40 143 109 70 62
137 126 137 133 0 1 15 18 33 36 40 41 94 103 127 147 14 19 33 43 44 55 37
42 121 161 119 168 -2 5 1 8 6 8 10 0 101 126 101 140 0 4 4 10 9 12 5 2 33
41 62 88 29 47 57 87 61 88 5 2 8 8 8 14 0 5 9 23 21 39 11 16 18 29 15 29 -3
0 3 9 14 20 12 12 18 25 15 29 -2 5 2 12 11 15 8 3 13 10 10 15 -3 5 1 11 9
15 8 3 15 10 15 16 0 5 14 32 31 60 l31 51 44 -72 c24 -39 44 -72 44 -74 0 -9
64 -105 70 -105 4 0 7 -6 7 -12 0 -21 236 -371 325 -483 4 -5 29 -37 55 -70
67 -84 73 -91 118 -142 22 -25 48 -55 59 -67 10 -12 23 -20 30 -18 6 2 8 0 3
-4 -7 -7 147 -164 162 -164 3 0 17 -10 31 -23 32 -30 132 -97 144 -97 5 0 17
-7 26 -15 9 -8 25 -16 36 -18 10 -2 26 -7 34 -10 61 -23 94 -26 150 -14 40 9
130 49 130 59 0 4 3 7 8 6 7 -3 78 38 98 57 6 5 22 17 35 25 12 8 41 33 63 55
22 22 37 33 32 25 -4 -8 8 2 28 22 20 21 39 38 41 38 12 -1 34 28 27 35 -4 5
-2 5 4 2 17 -10 493 483 487 505 -2 4 1 8 6 8 13 0 58 50 191 210 34 41 73 87
86 102 43 49 438 546 479 602 46 64 91 122 113 146 12 14 22 28 22 32 0 3 6
13 13 20 7 7 24 29 37 48 13 19 27 37 30 40 7 6 218 290 268 360 17 25 56 79
86 120 30 41 52 79 49 84 -4 5 -2 6 3 3 8 -5 72 76 126 162 9 14 21 31 26 37
5 6 31 42 57 80 26 38 54 76 62 85 20 24 17 26 -34 23 -384 -17 -1248 -41
-1643 -45 -246 -2 -315 7 -380 49 -14 8 -26 15 -28 14 -1 -2 -10 4 -18 12 -8
9 -23 21 -32 28 -9 7 -31 30 -49 50 -17 20 -35 34 -39 30 -4 -4 -4 -2 -1 4 4
6 -4 23 -18 38 -13 14 -22 26 -19 26 2 0 -6 17 -19 37 -13 21 -25 43 -27 48
-11 39 -23 65 -31 65 -4 0 -6 7 -3 15 4 8 1 15 -5 15 -6 0 -10 3 -9 8 1 4 -12
59 -29 122 -18 63 -34 129 -36 145 -3 17 -7 41 -11 55 -23 105 -39 302 -39
505 -1 232 5 303 24 273 6 -8 9 3 10 32 2 61 5 100 14 200 5 47 9 94 10 105 1
11 4 29 8 40 3 11 8 40 11 65 3 25 12 68 20 97 8 28 11 54 8 57 -3 3 0 6 6 6
6 0 26 14 44 30 18 17 46 43 63 58 16 15 25 20 20 12 -4 -8 6 -2 23 14 18 17
32 26 32 21 0 -4 9 2 20 15 11 13 20 20 20 16 0 -8 61 33 72 49 4 5 8 6 8 1 0
-5 9 -1 20 9 11 10 20 15 20 10 0 -4 7 -2 15 5 8 7 15 9 15 4 0 -5 5 -2 10 6
5 8 13 15 17 16 7 1 41 13 83 31 8 3 18 5 23 5 4 -1 7 3 7 9 0 5 5 7 10 4 6
-3 10 -1 10 6 0 7 3 10 6 6 3 -3 18 -1 33 5 29 11 60 19 79 20 6 1 12 6 12 11
0 6 2 8 6 5 3 -3 22 -2 42 3 20 5 46 12 57 15 11 2 38 7 60 10 22 3 51 7 65
10 75 16 379 23 495 10 33 -3 85 -8 115 -12 54 -5 95 -11 135 -18 61 -12 93
-18 115 -21 14 -2 36 -7 50 -10 14 -3 39 -8 57 -10 18 -2 38 -7 44 -11 7 -4
24 -8 38 -10 14 -1 26 -3 26 -4 0 -2 18 -6 57 -15 15 -3 39 -10 53 -15 14 -5
25 -7 25 -5 0 3 16 -1 35 -9 20 -9 36 -15 38 -15 1 1 22 -4 47 -11 25 -7 52
-14 60 -15 8 -2 16 -4 18 -5 1 -2 5 -3 10 -4 4 -1 41 -13 82 -26 41 -12 81
-23 88 -23 6 0 12 -5 12 -10 0 -5 6 -7 14 -4 7 3 18 1 22 -3 5 -5 18 -11 29
-13 11 -1 25 -5 30 -8 8 -5 135 -46 168 -55 4 -1 9 -3 12 -4 3 -1 8 -3 13 -5
4 -1 15 -5 24 -9 9 -4 22 -8 30 -10 7 -1 18 -4 23 -7 11 -7 65 -23 80 -24 6 0
15 -4 21 -7 22 -14 219 -76 226 -72 4 3 8 0 8 -6 0 -7 6 -10 14 -7 8 3 16 3
18 -1 2 -4 44 -20 93 -36 377 -118 477 -140 595 -133 93 6 230 35 230 49 0 5
3 7 8 5 4 -3 18 0 32 6 14 5 32 11 40 13 8 2 16 8 18 14 2 5 7 8 11 6 20 -13
360 217 361 243 0 8 3 11 7 8 3 -4 21 9 40 28 19 19 38 35 42 35 5 0 15 8 22
17 12 14 12 16 0 8 -10 -5 -12 -4 -7 3 4 7 11 12 16 12 5 0 26 16 46 35 19 19
33 35 30 35 -2 0 7 13 22 28 15 15 30 26 35 24 4 -2 7 3 7 10 1 7 14 24 30 38
17 13 30 29 30 35 0 5 9 16 20 23 11 7 20 19 20 28 0 8 3 13 8 11 4 -3 22 16
41 42 19 25 40 51 46 56 6 6 26 32 45 60 19 27 43 58 52 69 10 11 30 38 45 60
15 23 30 43 33 46 23 23 42 52 30 45 -8 -5 -1 5 15 23 17 18 28 33 26 35 -3 1
7 15 22 31 15 16 27 33 27 38 0 5 9 18 20 30 10 12 17 25 14 30 -3 4 -1 8 4 8
9 0 29 31 127 190 110 179 143 239 137 244 -3 3 0 6 6 6 7 0 12 6 12 14 0 8 4
16 8 18 13 5 71 115 65 122 -4 3 -1 6 5 6 6 0 19 17 28 38 10 20 26 49 36 65
11 15 16 27 13 27 -4 0 1 7 9 16 9 8 14 20 11 25 -4 5 -1 9 5 9 6 0 8 5 5 10
-3 6 -2 10 4 10 6 0 13 11 17 25 3 14 10 25 16 25 5 0 7 4 4 9 -4 5 -3 11 1
13 13 5 192 365 186 372 -4 3 -2 6 4 6 10 0 33 49 32 67 -1 3 4 9 11 13 6 4
12 13 14 21 1 8 14 38 29 67 15 28 24 52 20 52 -5 0 -3 4 2 8 16 12 46 73 39
83 -3 5 -1 9 5 9 5 0 13 9 16 20 4 12 21 51 38 88 17 37 31 69 32 72 0 3 11
25 23 49 12 24 19 48 16 52 -3 5 -1 9 4 9 7 0 38 60 46 90 1 3 17 42 36 88 32
77 38 85 80 106 106 53 417 232 458 263 101 76 204 274 281 538 26 88 72 282
69 292 -1 5 4 26 10 48 6 22 14 58 17 80 4 22 8 51 11 65 2 14 11 72 20 130 8
58 17 116 19 130 3 14 7 50 10 81 3 31 7 64 9 75 2 10 7 47 10 82 3 34 9 90
12 125 11 106 12 119 19 212 3 50 8 101 10 115 2 14 6 77 10 140 4 63 8 138
10 165 2 28 7 120 10 205 4 85 8 184 10 220 24 410 24 1902 0 2510 -2 52 -7
187 -11 300 -3 113 -8 228 -9 255 -2 28 -6 127 -10 220 -4 94 -8 171 -9 172
-4 4 -66 -87 -66 -96 0 -5 -3 -11 -8 -13 -12 -5 -82 -105 -82 -117 0 -6 -4
-11 -8 -11 -5 0 -32 -34 -62 -76 -46 -67 -150 -207 -244 -329 -17 -22 -34 -41
-38 -43 -5 -2 -8 -8 -8 -13 0 -5 -8 -17 -17 -27 -30 -32 -88 -104 -92 -116 -2
-6 -12 -18 -21 -26 -10 -8 -45 -50 -79 -93 -34 -43 -70 -86 -79 -95 -9 -10
-35 -40 -57 -67 -22 -26 -49 -58 -60 -71 -11 -12 -40 -46 -65 -74 -25 -28 -61
-68 -80 -89 -19 -21 -78 -85 -130 -142 -52 -57 -185 -194 -295 -304 -110 -110
-198 -204 -197 -208 1 -5 -1 -6 -6 -3 -5 3 -18 -5 -29 -17 -10 -12 -57 -56
-102 -97 -46 -41 -106 -96 -134 -122 -29 -27 -55 -48 -59 -48 -5 0 -8 -7 -8
-15 0 -8 -4 -14 -9 -13 -5 2 -26 -13 -47 -32 -73 -66 -341 -285 -475 -387 -74
-57 -138 -106 -144 -110 -25 -20 -161 -118 -237 -170 -46 -31 -85 -60 -88 -63
-3 -4 -9 -9 -15 -11 -5 -2 -62 -38 -125 -80 -120 -80 -399 -251 -462 -284 -20
-10 -35 -22 -33 -25 2 -4 -1 -7 -8 -7 -7 0 -59 -26 -117 -58 -148 -81 -361
-191 -386 -199 -20 -6 -21 -3 -22 76 -1 46 -6 108 -12 138 -5 30 -12 66 -15
80 -2 14 -12 50 -20 80 -21 74 -21 73 -28 90 -3 8 -16 44 -28 80 -13 36 -29
76 -36 90 -7 14 -13 33 -13 43 0 9 -5 17 -11 17 -5 0 -7 5 -4 10 3 6 1 10 -4
10 -6 0 -11 7 -11 15 0 8 -4 23 -9 33 -6 9 -42 81 -80 159 -73 147 -92 184
-101 193 -3 3 -15 24 -27 48 -13 23 -33 61 -45 85 -13 23 -25 44 -28 47 -8 8
-70 111 -70 117 0 2 -14 26 -32 51 -61 91 -68 101 -68 107 0 7 -65 105 -84
128 -9 9 -16 20 -16 23 0 4 -8 13 -17 21 -10 8 -12 11 -4 7 7 -4 3 7 -10 25
-12 17 -27 31 -31 31 -5 0 -7 4 -4 9 3 5 -5 20 -18 34 -13 14 -21 28 -19 31 3
3 -2 8 -11 12 -9 3 -14 10 -11 14 3 5 -10 23 -27 41 -18 18 -27 29 -20 25 7
-4 1 10 -15 32 -15 22 -32 37 -37 34 -5 -3 -6 0 -3 5 4 6 -4 22 -18 37 -13 14
-21 26 -17 26 4 1 -4 10 -17 20 -13 11 -20 20 -17 20 7 0 -50 81 -82 115 -10
11 -19 25 -20 30 -2 6 -12 20 -22 33 -11 12 -20 26 -20 31 0 5 -4 11 -8 13 -5
2 -23 24 -41 51 -17 26 -37 47 -43 47 -6 0 -8 3 -5 6 4 4 -6 22 -21 40 -15 18
-43 54 -62 80 -19 26 -45 59 -57 73 -12 14 -50 62 -85 106 -35 44 -70 88 -78
99 -8 10 -27 31 -42 47 -14 15 -23 30 -20 33 3 3 0 6 -6 6 -7 0 -13 -6 -13
-12 -1 -7 -3 -24 -5 -38 -3 -14 -5 -31 -6 -37 -1 -7 -5 -13 -10 -13 -5 0 -8
-6 -7 -12 1 -7 -1 -22 -5 -33 -4 -11 -12 -33 -18 -50 -6 -16 -17 -46 -26 -65
-8 -19 -15 -41 -15 -47 0 -7 -4 -13 -9 -13 -5 0 -6 -4 -3 -10 3 -5 1 -10 -4
-10 -6 0 -11 -4 -11 -9 0 -5 -9 -30 -20 -55 -11 -26 -20 -50 -20 -54 -1 -4 -9
-15 -17 -24 -9 -10 -12 -18 -8 -18 4 0 0 -9 -10 -20 -10 -11 -15 -20 -10 -20
4 0 3 -6 -2 -12 -17 -22 -73 -128 -67 -128 3 0 -2 -7 -10 -16 -9 -8 -14 -20
-11 -25 4 -5 1 -9 -5 -9 -6 0 -15 -12 -20 -26 -6 -14 -26 -52 -44 -84 -19 -32
-32 -61 -29 -64 4 -3 1 -6 -6 -6 -11 0 -36 -47 -33 -62 1 -5 -3 -8 -9 -8 -5 0
-8 -4 -5 -9 3 -5 -1 -12 -10 -15 -8 -3 -13 -10 -10 -15 3 -5 -1 -15 -10 -22
-12 -10 -34 -51 -46 -87 -1 -4 -10 -16 -20 -26 -10 -11 -18 -26 -18 -33 0 -7
-5 -13 -11 -13 -5 0 -7 -4 -4 -10 3 -5 2 -10 -3 -10 -5 0 -14 -11 -20 -24 -6
-14 -24 -44 -39 -68 -15 -24 -27 -45 -28 -48 0 -3 -10 -19 -23 -37 -12 -17
-22 -36 -22 -42 0 -6 -4 -11 -9 -11 -5 0 -15 -16 -22 -34 -7 -19 -16 -33 -21
-30 -4 3 -8 -1 -8 -10 0 -8 -11 -28 -25 -44 -13 -16 -22 -32 -18 -36 3 -3 1
-6 -6 -6 -7 0 -10 -4 -7 -9 3 -5 -1 -12 -10 -15 -9 -4 -14 -9 -11 -12 3 -3 -3
-14 -14 -25 -11 -11 -17 -24 -14 -28 2 -5 -2 -12 -11 -15 -9 -4 -14 -9 -11
-12 3 -3 -3 -15 -13 -27 -11 -12 -18 -24 -17 -27 1 -3 -10 -19 -25 -35 -16
-16 -28 -35 -28 -42 0 -7 -5 -13 -11 -13 -5 0 -7 -4 -4 -10 3 -5 1 -10 -4 -10
-6 0 -11 -5 -11 -10 0 -6 -11 -23 -25 -38 -14 -15 -25 -31 -25 -36 0 -5 -8
-15 -17 -23 -11 -9 -12 -11 -3 -7 8 4 3 -5 -12 -20 -15 -16 -25 -32 -23 -37 3
-4 -4 -13 -15 -19 -11 -6 -18 -15 -15 -21 4 -5 -2 -9 -12 -9 -11 1 -51 47
-107 125 -49 69 -93 125 -98 125 -5 0 -7 4 -4 8 3 5 -6 21 -20 37 -14 16 -34
44 -45 62 -11 18 -25 33 -30 33 -5 0 -9 5 -9 11 0 9 -13 29 -65 97 -5 7 -18
22 -27 33 -10 10 -18 21 -18 24 0 8 -84 119 -92 123 -5 2 -8 8 -8 13 0 9 -21
37 -52 71 -10 10 -15 18 -10 18 4 1 -4 10 -18 21 -14 12 -24 24 -23 28 2 7
-98 144 -109 149 -4 2 -8 8 -8 13 0 10 -10 24 -42 60 -10 10 -17 20 -16 22 5
7 -61 85 -67 79 -5 -4 -5 -2 -2 4 4 6 -4 23 -18 38 -13 14 -21 26 -17 26 4 0
2 4 -4 8 -5 4 -26 29 -45 57 -42 60 -59 83 -81 107 -10 10 -15 18 -10 18 4 0
-2 7 -13 16 -11 8 -20 18 -20 23 0 7 -25 42 -105 149 -20 26 -114 155 -210
287 -96 132 -178 242 -182 243 -4 2 -8 8 -8 13 0 16 -68 98 -76 91 -4 -4 -4
-2 -1 4 4 6 -3 22 -14 35 -12 13 -29 35 -38 49 -20 31 -31 46 -53 71 -10 10
-15 19 -12 19 3 0 -7 15 -24 34 -16 19 -38 48 -48 65 -10 17 -22 31 -26 31 -4
0 -8 4 -8 10 0 10 -19 36 -55 75 -11 13 -21 29 -23 36 -2 8 -7 16 -11 19 -4 3
-42 54 -86 113 -43 59 -81 110 -84 112 -4 2 -16 -12 -29 -31z"/>
<path d="M10644 7169 c-15 -30 -27 -57 -26 -61 1 -5 -2 -8 -7 -8 -5 0 -12 -11
-15 -25 -4 -14 -11 -25 -16 -25 -6 0 -10 -9 -10 -20 0 -11 -5 -20 -11 -20 -5
0 -8 -4 -5 -9 4 -5 3 -11 -1 -13 -11 -4 -49 -80 -45 -90 1 -4 -2 -8 -7 -8 -5
0 -13 -10 -17 -22 -3 -12 -13 -28 -20 -36 -8 -7 -12 -18 -9 -23 4 -5 1 -9 -6
-9 -7 0 -9 -3 -6 -6 3 -4 -2 -18 -13 -32 -11 -13 -17 -28 -14 -33 3 -5 1 -9
-4 -9 -5 0 -26 -35 -47 -77 -21 -43 -47 -90 -56 -104 -10 -14 -16 -29 -12 -33
3 -3 1 -6 -6 -6 -7 0 -9 -4 -6 -10 3 -5 1 -10 -5 -10 -6 0 -8 -4 -5 -10 3 -5
1 -10 -4 -10 -6 0 -11 -6 -11 -14 0 -7 -7 -19 -15 -26 -8 -7 -12 -16 -9 -21 3
-5 0 -9 -7 -9 -7 0 -9 -3 -6 -6 4 -4 -2 -19 -13 -34 -11 -15 -17 -30 -13 -34
3 -3 1 -6 -6 -6 -7 0 -9 -4 -6 -10 3 -5 2 -10 -2 -10 -5 0 -14 -12 -20 -27 -7
-16 -25 -52 -42 -80 -17 -29 -28 -53 -25 -53 3 0 -4 -12 -15 -26 -12 -15 -21
-31 -21 -36 0 -5 -7 -16 -15 -25 -8 -8 -13 -19 -10 -24 4 -5 1 -9 -5 -9 -6 0
-8 -4 -5 -10 3 -5 2 -10 -3 -10 -9 0 -25 -37 -23 -52 1 -5 -4 -8 -9 -8 -6 0
-10 -6 -10 -14 0 -8 -3 -16 -7 -18 -10 -4 -57 -100 -55 -110 1 -5 -2 -8 -7 -8
-5 0 -13 -10 -17 -22 -3 -13 -15 -35 -25 -49 -10 -14 -16 -29 -12 -33 3 -3 1
-6 -5 -6 -7 0 -12 -9 -12 -20 0 -11 -5 -20 -12 -20 -6 0 -9 -3 -5 -6 3 -4 -1
-13 -9 -21 -8 -8 -12 -18 -9 -23 3 -4 -2 -11 -11 -14 -9 -4 -14 -9 -11 -13 4
-3 -2 -18 -13 -33 -11 -15 -17 -30 -13 -33 3 -4 -2 -9 -11 -13 -9 -3 -14 -10
-11 -14 3 -5 1 -11 -5 -15 -6 -4 -8 -11 -5 -16 4 -5 1 -9 -4 -9 -6 0 -11 -7
-11 -15 0 -8 -4 -15 -8 -15 -8 0 -36 -60 -33 -72 0 -5 -3 -8 -9 -8 -5 0 -10
-7 -10 -15 0 -8 -5 -15 -10 -15 -6 0 -9 -3 -8 -7 1 -5 -11 -33 -27 -63 -16
-30 -28 -58 -27 -62 1 -5 -2 -8 -7 -8 -5 0 -17 -20 -28 -45 -10 -25 -21 -45
-25 -45 -5 0 -8 -9 -8 -20 0 -11 -3 -20 -8 -20 -8 0 -38 -62 -33 -69 1 -2 -2
-7 -7 -10 -10 -7 -51 -83 -48 -92 0 -3 -7 -13 -17 -23 -9 -10 -15 -21 -12 -26
3 -5 1 -10 -3 -12 -12 -4 -82 -139 -82 -157 0 -8 -3 -12 -6 -9 -3 4 -29 -39
-57 -95 -28 -56 -54 -104 -57 -107 -8 -6 -20 -39 -17 -43 1 -2 -6 -11 -16 -21
-9 -10 -15 -22 -12 -27 4 -5 2 -9 -2 -9 -10 0 -58 -90 -55 -102 1 -5 -3 -8 -9
-8 -5 0 -7 -4 -4 -10 3 -5 2 -10 -2 -10 -5 0 -16 -17 -26 -37 -9 -21 -28 -57
-41 -80 -14 -22 -22 -44 -19 -47 4 -3 0 -6 -7 -6 -7 0 -10 -3 -7 -7 4 -3 -1
-12 -11 -20 -9 -8 -12 -12 -5 -8 7 3 0 -13 -15 -36 -15 -23 -25 -42 -22 -44 3
-2 -4 -12 -14 -24 -11 -12 -15 -21 -11 -21 5 0 1 -6 -10 -13 -10 -8 -15 -19
-12 -24 4 -6 0 -14 -9 -17 -8 -3 -13 -10 -10 -15 4 -5 0 -15 -7 -23 -25 -26
-89 -162 -78 -166 6 -2 11 -9 11 -16 0 -18 24 -66 33 -66 5 0 5 -4 2 -10 -3
-5 -2 -10 2 -10 5 0 17 -20 28 -45 11 -25 23 -45 28 -45 4 0 7 -9 7 -20 0 -11
4 -20 10 -20 5 0 12 -11 16 -25 3 -14 10 -25 16 -25 5 0 7 -4 3 -9 -3 -5 2
-16 10 -24 8 -9 15 -23 15 -31 0 -9 4 -16 9 -16 5 0 13 -10 17 -22 3 -13 12
-30 19 -38 8 -8 14 -18 15 -22 8 -36 14 -47 21 -42 5 3 9 -2 9 -11 0 -14 18
-53 30 -65 12 -12 30 -51 30 -64 0 -8 8 -20 18 -25 9 -6 14 -11 9 -11 -4 0 4
-18 17 -39 14 -21 22 -41 19 -45 -3 -3 2 -8 11 -12 9 -3 14 -10 11 -14 -3 -5
1 -15 9 -23 8 -8 12 -17 9 -21 -4 -3 -1 -6 6 -6 7 0 10 -4 6 -9 -3 -5 2 -16
10 -24 8 -9 15 -20 15 -25 0 -5 7 -15 15 -22 8 -7 12 -16 9 -21 -3 -5 0 -9 6
-9 6 0 8 -4 5 -10 -3 -6 -1 -10 4 -10 6 0 10 -3 9 -7 -3 -13 24 -63 34 -63 4
0 8 -3 7 -7 -2 -16 14 -53 23 -53 5 0 6 -4 3 -10 -3 -5 -1 -10 5 -10 6 0 9 -4
6 -9 -4 -5 -3 -11 1 -13 5 -1 21 -28 37 -58 62 -118 76 -143 87 -156 6 -8 8
-14 5 -14 -4 0 2 -13 14 -30 12 -16 18 -30 13 -30 -4 0 -1 -5 7 -10 8 -5 15
-13 15 -17 1 -13 37 -78 47 -84 5 -3 9 -9 9 -13 -3 -18 0 -26 15 -40 9 -9 17
-23 18 -31 1 -8 11 -24 22 -36 10 -12 13 -19 6 -15 -11 7 -11 4 0 -13 7 -12
16 -21 21 -21 4 0 5 -4 2 -10 -3 -5 -1 -10 6 -10 7 0 10 -3 6 -6 -3 -3 8 -28
24 -55 16 -28 29 -54 29 -59 0 -6 5 -10 11 -10 5 0 7 -4 4 -10 -3 -5 -1 -10 5
-10 6 0 9 -4 6 -9 -3 -5 1 -14 9 -21 8 -7 15 -19 15 -26 0 -8 5 -14 11 -14 5
0 7 -4 4 -10 -3 -5 -1 -10 6 -10 7 0 10 -3 6 -6 -3 -3 5 -23 18 -44 13 -21 21
-41 18 -44 -4 -3 -1 -6 5 -6 7 0 12 -7 12 -15 0 -8 4 -15 10 -15 5 0 10 -3 9
-7 -2 -17 14 -53 24 -53 6 0 7 -3 4 -6 -3 -4 3 -18 13 -32 11 -13 20 -31 20
-38 0 -8 5 -14 12 -14 6 0 9 -3 5 -6 -3 -3 5 -24 19 -45 13 -21 24 -43 24 -49
0 -5 5 -10 11 -10 5 0 7 -4 4 -10 -3 -5 -1 -10 6 -10 7 0 9 -3 6 -6 -4 -4 2
-19 13 -34 11 -16 20 -33 20 -39 0 -6 4 -11 10 -11 5 0 9 -3 8 -8 -3 -10 43
-96 56 -104 6 -4 8 -8 3 -8 -9 0 53 -113 65 -118 5 -2 6 -8 2 -13 -3 -5 0 -9
7 -9 7 0 9 -3 6 -6 -7 -7 42 -97 55 -102 5 -2 6 -8 2 -13 -3 -5 0 -9 6 -9 6 0
9 -4 6 -8 -2 -4 11 -32 29 -62 18 -30 31 -58 29 -62 -3 -4 -1 -8 4 -8 6 0 17
-18 26 -40 9 -22 21 -40 27 -40 5 0 7 -4 4 -10 -3 -5 -1 -10 4 -10 6 0 10 -3
9 -7 -4 -15 13 -53 23 -53 6 0 8 -4 5 -8 -3 -5 3 -18 14 -29 10 -12 16 -24 13
-27 -4 -3 -1 -6 5 -6 7 0 11 -3 10 -7 -2 -5 22 -53 52 -108 30 -55 55 -102 55
-105 0 -3 19 -37 40 -76 28 -50 43 -68 50 -60 14 15 39 69 37 79 -1 4 3 7 9 7
5 0 7 5 4 10 -3 6 -2 10 4 10 9 0 21 26 20 44 0 5 4 12 9 15 5 3 22 31 37 61
15 30 35 64 44 74 13 16 13 18 1 11 -8 -4 -5 3 8 17 12 13 22 32 22 41 0 9 5
17 10 17 6 0 10 9 10 20 0 11 5 20 12 20 6 0 9 3 5 6 -3 4 1 13 9 21 8 8 12
19 9 24 -4 5 -2 9 2 9 8 0 57 91 54 98 -1 1 5 10 14 18 8 9 13 20 10 25 -4 5
-2 9 4 9 6 0 13 11 17 25 3 14 10 25 14 25 6 0 20 34 19 48 0 1 7 10 16 18 8
9 13 20 10 25 -4 5 -3 9 2 9 4 0 15 15 22 33 8 17 21 38 28 45 7 8 11 18 8 23
-4 5 -1 9 6 9 7 0 9 3 6 7 -4 3 3 18 15 31 13 14 17 22 10 18 -11 -7 -11 -4 0
13 7 12 16 21 19 21 4 0 10 12 13 26 4 15 14 33 22 41 8 8 12 19 9 24 -4 5 -1
9 5 9 6 0 8 4 5 10 -3 5 -1 10 5 10 6 0 8 5 5 10 -3 6 -1 10 4 10 6 0 11 7 11
15 0 8 4 15 9 15 8 0 24 37 22 52 -1 5 4 8 10 8 5 0 8 4 5 9 -3 5 1 12 10 15
9 4 14 13 10 21 -3 8 -1 15 5 15 6 0 8 4 5 9 -3 5 1 12 10 15 8 3 13 10 10 15
-4 5 0 16 8 24 13 13 45 80 45 93 0 3 8 12 18 20 10 7 15 14 10 14 -4 0 4 18
18 40 14 22 22 40 19 40 -4 0 0 8 9 18 10 10 14 22 10 25 -3 4 -1 7 5 7 7 0
12 7 12 15 0 8 5 15 10 15 6 0 10 9 10 20 0 11 4 20 8 20 8 0 36 60 33 73 0 4
4 7 9 7 6 0 10 6 10 14 0 7 7 19 15 26 8 7 12 16 9 21 -3 5 0 9 6 9 6 0 8 5 5
10 -3 6 -1 10 5 10 6 0 8 5 5 10 -3 5 -1 10 5 10 6 0 8 4 5 10 -3 5 -1 10 5
10 6 0 8 5 5 10 -3 6 -1 10 4 10 6 0 11 7 11 15 0 8 4 15 9 15 5 0 12 7 15 16
4 10 2 13 -7 8 -6 -4 -2 4 11 18 12 13 19 28 15 31 -3 4 -1 7 6 7 7 0 9 5 6
10 -3 6 -1 10 5 10 6 0 8 5 5 10 -3 6 -1 10 4 10 6 0 11 6 11 14 0 7 7 19 15
26 9 7 13 15 11 18 -3 3 4 18 15 33 11 16 17 29 14 29 -4 0 1 7 9 16 9 8 14
20 11 25 -4 5 -1 9 5 9 6 0 8 5 5 10 -3 6 -1 10 4 10 6 0 11 7 11 15 0 8 4 15
9 15 8 0 24 37 22 53 -1 4 3 7 8 7 7 0 22 36 20 49 0 2 3 7 8 10 10 7 29 40
62 106 13 28 29 53 35 57 6 4 7 8 3 8 -5 0 1 13 12 28 11 16 23 40 26 55 4 15
11 27 16 27 9 0 53 90 51 103 -1 4 3 7 9 7 5 0 8 4 5 9 -3 5 1 12 10 15 9 4
14 13 10 21 -3 8 -1 15 4 15 5 0 14 16 21 35 7 19 17 35 21 35 4 0 8 9 8 20 0
11 5 20 10 20 6 0 10 7 10 15 0 8 4 15 10 15 5 0 7 8 3 18 -3 9 -3 14 2 10 4
-4 21 21 37 55 16 34 34 64 39 65 5 2 7 8 3 13 -3 5 0 9 7 9 7 0 10 3 6 6 -3
4 5 23 18 43 14 19 25 41 25 47 0 6 10 24 22 40 13 16 16 25 8 20 -8 -4 -7 -1
2 7 10 8 15 17 11 20 -3 4 0 7 7 7 7 0 10 3 7 7 -4 3 0 15 10 25 9 10 13 18 9
18 -4 0 2 12 13 26 11 15 19 30 16 34 -3 4 2 11 11 14 8 3 12 10 9 16 -3 5 -1
10 5 10 6 0 8 5 5 10 -3 6 -2 10 3 10 9 0 24 40 21 56 0 4 5 10 12 15 14 8 23
49 11 49 -5 0 -21 27 -37 60 -16 33 -32 60 -37 60 -4 0 -8 3 -7 8 2 16 -14 52
-24 52 -6 0 -8 3 -4 6 3 4 -8 27 -26 53 -17 25 -31 47 -30 48 4 8 -11 43 -18
43 -5 0 -9 7 -9 16 0 9 -9 27 -20 41 -11 14 -20 32 -20 39 0 8 -5 14 -11 14
-5 0 -7 5 -4 10 3 6 1 10 -5 10 -6 0 -8 5 -5 10 3 6 3 10 -2 10 -4 0 -21 27
-38 60 -16 33 -33 60 -38 60 -4 0 -6 4 -2 9 3 5 -3 17 -12 27 -10 10 -17 19
-16 21 4 8 -11 43 -19 43 -5 0 -7 4 -3 9 3 6 -2 14 -11 19 -9 5 -16 13 -15 18
0 13 -70 148 -81 155 -5 3 -10 9 -10 12 0 19 -12 47 -20 47 -5 0 -7 4 -4 9 3
5 -1 12 -9 15 -8 3 -14 9 -13 13 4 12 -64 143 -74 143 -5 0 -6 5 -3 10 3 6 1
10 -4 10 -6 0 -11 3 -10 8 2 15 -14 52 -23 52 -5 0 -7 4 -3 9 3 5 0 13 -5 16
-12 7 -34 55 -32 68 1 4 -2 7 -8 7 -5 0 -18 21 -30 47 -11 26 -25 50 -31 53
-5 4 -11 17 -14 30 -2 12 -12 31 -21 41 -10 11 -13 19 -8 19 5 0 2 5 -6 10 -8
5 -15 13 -16 17 -1 14 -39 88 -51 101 -7 7 -13 20 -13 28 0 8 -5 14 -10 14 -6
0 -10 3 -9 8 2 15 -14 52 -22 52 -5 0 -9 7 -9 15 0 8 -5 15 -11 15 -5 0 -8 4
-5 9 3 5 -3 20 -14 33 -11 14 -16 28 -13 32 3 3 1 6 -5 6 -7 0 -12 9 -12 20 0
11 -4 20 -10 20 -5 0 -10 7 -10 15 0 8 -5 15 -11 15 -5 0 -8 4 -4 9 3 5 -2 17
-11 25 -8 9 -12 16 -9 16 4 0 -5 17 -21 37 -15 20 -21 33 -13 29 8 -4 5 0 -6
9 -11 9 -19 18 -17 20 4 7 -49 109 -60 116 -5 3 -10 9 -10 12 0 19 -12 47 -20
47 -5 0 -6 5 -3 10 3 6 1 10 -6 10 -7 0 -9 3 -6 7 4 3 -1 12 -11 20 -11 10
-12 12 -2 8 8 -4 6 1 -4 9 -11 9 -17 16 -13 16 8 0 -42 93 -55 101 -6 3 -9 9
-8 13 2 12 -43 96 -52 96 -5 0 -6 5 -3 10 3 6 1 10 -6 10 -7 0 -10 3 -6 6 6 7
-52 117 -65 122 -5 2 -6 7 -3 12 3 5 -1 14 -8 22 -15 15 -16 15 -23 46 -4 12
-10 22 -15 22 -5 0 -9 7 -9 15 0 8 -5 15 -11 15 -5 0 -8 4 -5 9 3 5 -4 21 -17
37 -12 16 -20 30 -17 31 3 1 -2 11 -10 21 -8 10 -16 24 -18 31 -1 7 -10 24
-19 38 -10 14 -18 33 -19 41 -2 8 -9 19 -16 23 -7 5 -8 9 -3 9 6 0 4 4 -4 9
-8 5 -15 15 -17 23 -1 7 -16 37 -33 66 -17 29 -31 57 -31 62 0 6 -4 10 -10 10
-5 0 -10 3 -9 8 2 16 -14 52 -24 52 -6 0 -8 3 -4 6 3 4 -1 13 -9 21 -8 8 -12
19 -9 24 4 5 2 9 -3 9 -4 0 -21 27 -37 60 -16 33 -33 60 -37 60 -5 0 -7 4 -3
9 3 5 -2 16 -10 25 -9 9 -18 26 -20 38 -9 44 -23 41 -51 -13z"/>
</g>
</svg>
